<?xml version="1.0" encoding="UTF-8"?>
<svg version="1.1" xmlns="http://www.w3.org/2000/svg" width="161" height="50">
<path d="M0 0 C5.51724138 2.75862069 5.51724138 2.75862069 6.875 6.25 C6.91625 6.8275 6.9575 7.405 7 8 C8.051875 7.2265625 8.051875 7.2265625 9.125 6.4375 C12.64631452 4.67684274 14.27045042 4.92257457 18 6 C18.66 6.66 19.32 7.32 20 8 C20.66 7.01 21.32 6.02 22 5 C27.75 5.75 27.75 5.75 30 8 C30.33 7.34 30.66 6.68 31 6 C33.72265625 5.5859375 33.72265625 5.5859375 37.0625 5.375 C38.16722656 5.30023437 39.27195312 5.22546875 40.41015625 5.1484375 C41.26480469 5.09945313 42.11945313 5.05046875 43 5 C43 7.31 43 9.62 43 12 C40 13 40 13 37.8125 12.0625 C37.214375 11.711875 36.61625 11.36125 36 11 C35.34 12.32 34.68 13.64 34 15 C34.99 16.11375 34.99 16.11375 36 17.25 C38 20 38 20 38 24 C36.02 23.67 34.04 23.34 32 23 C31.814375 23.7734375 31.814375 23.7734375 31.625 24.5625 C30.81358372 27.72702351 29.9054087 30.86124985 29 34 C28.01 34 27.02 34 26 34 C25.690625 33.030625 25.38125 32.06125 25.0625 31.0625 C24.30476658 28.15934208 24.30476658 28.15934208 23 27 C22.67 29.31 22.34 31.62 22 34 C1 34 -20 34 -41 34 C-41 30.7 -41 27.4 -41 24 C-39.51886719 24.03480469 -39.51886719 24.03480469 -38.0078125 24.0703125 C-36.08582031 24.09738281 -36.08582031 24.09738281 -34.125 24.125 C-32.84882812 24.14820312 -31.57265625 24.17140625 -30.2578125 24.1953125 C-26.91406662 24.35641524 -26.91406662 24.35641524 -25 22 C-25.48597656 21.59652344 -25.97195312 21.19304688 -26.47265625 20.77734375 C-28.83334439 18.03025142 -28.47831229 15.65378514 -28.34765625 12.16015625 C-28 10 -28 10 -26.375 7.5 C-23.43125008 5.64078953 -21.48729073 5.0711692 -18 5 C-13.43478261 7.13043478 -13.43478261 7.13043478 -12 10 C-12.08838461 12.37783105 -12.24346421 14.75345146 -12.4375 17.125 C-12.53933594 18.40632813 -12.64117187 19.68765625 -12.74609375 21.0078125 C-12.87177734 22.48894531 -12.87177734 22.48894531 -13 24 C-12.34 24 -11.68 24 -11 24 C-11 16.41 -11 8.82 -11 1 C-7.52779078 -0.73610461 -3.79625758 -0.46497786 0 0 Z M-4 6 C-4 7.32 -4 8.64 -4 10 C-3.01 10 -2.02 10 -1 10 C-1 8.68 -1 7.36 -1 6 C-1.99 6 -2.98 6 -4 6 Z M21 9 C21.33 11.64 21.66 14.28 22 17 C21.34 17 20.68 17 20 17 C20.33 17.99 20.66 18.98 21 20 C22.65 18.35 24.3 16.7 26 15 C24.69593116 12.98079663 23.36176581 10.98075027 22 9 C21.67 9 21.34 9 21 9 Z M-22 11 C-18 12 -18 12 -18 12 Z M4 12 C4 12.66 4 13.32 4 14 C1.36 14.66 -1.28 15.32 -4 16 C-4 18.31 -4 20.62 -4 23 C-4.99 23.33 -5.98 23.66 -7 24 C-3.86650268 25.04449911 -3.01031744 24.93423645 0 24 C0 26.64 0 29.28 0 32 C0.66 32 1.32 32 2 32 C2 29.36 2 26.72 2 24 C5.3 24 8.6 24 12 24 C11.21625 23.505 10.4325 23.01 9.625 22.5 C6.09968551 19.14255763 5.86663179 16.72708251 5 12 C4.67 12 4.34 12 4 12 Z M29 20 C28.67 20.99 28.34 21.98 28 23 C26.80375 22.814375 25.6075 22.62875 24.375 22.4375 C20.71716293 21.9688803 17.62137834 22.18518987 14 23 C14 23.33 14 23.66 14 24 C14.84304687 24.06058594 15.68609375 24.12117188 16.5546875 24.18359375 C18.19824219 24.30927734 18.19824219 24.30927734 19.875 24.4375 C21.51082031 24.55931641 21.51082031 24.55931641 23.1796875 24.68359375 C26 25 26 25 28 26 C28 25.34 28 24.68 28 24 C28.99 24 29.98 24 31 24 C30.34 22.68 29.68 21.36 29 20 Z M-21 24 C-20 27 -20 27 -20 27 Z M-10 27 C-9.67 28.65 -9.34 30.3 -9 32 C-7.35 31.67 -5.7 31.34 -4 31 C-4 30.01 -4 29.02 -4 28 C-6.97 27.505 -6.97 27.505 -10 27 Z M-28 29 C-28.33 29.66 -28.66 30.32 -29 31 C-28.01 30.67 -27.02 30.34 -26 30 C-26.66 29.67 -27.32 29.34 -28 29 Z M12 29 C13 32 13 32 13 32 Z M-38 30 C-38 30.66 -38 31.32 -38 32 C-37.01 32 -36.02 32 -35 32 C-35 31.34 -35 30.68 -35 30 C-35.99 30 -36.98 30 -38 30 Z M-26 30 C-25.67 30.66 -25.34 31.32 -25 32 C-24.34 31.67 -23.68 31.34 -23 31 C-23.99 30.67 -24.98 30.34 -26 30 Z M-17 30 C-17 30.66 -17 31.32 -17 32 C-15.68 31.67 -14.36 31.34 -13 31 C-14.32 30.67 -15.64 30.34 -17 30 Z " fill="#007AC6" transform="translate(107,8)"/>
<path d="M0 0 C3 1.1875 3 1.1875 5 3 C5.9375 5.5 5.9375 5.5 6 8 C5.01 9.485 5.01 9.485 4 11 C4.66 11.66 5.32 12.32 6 13 C6.38080215 16.50337981 6.40245078 18.36278626 4.5 21.375 C3.7575 22.179375 3.7575 22.179375 3 23 C4.32 23.33 5.64 23.66 7 24 C7 24.66 7 25.32 7 26 C7.66 26 8.32 26 9 26 C9 25.34 9 24.68 9 24 C10.47906892 23.97310784 11.95827483 23.95365379 13.4375 23.9375 C14.26121094 23.92589844 15.08492187 23.91429688 15.93359375 23.90234375 C18 24 18 24 19 25 C19.07179964 26.51928038 19.08392007 28.04167482 19.0625 29.5625 C19.05347656 30.38878906 19.04445313 31.21507813 19.03515625 32.06640625 C19.02355469 32.70449219 19.01195313 33.34257813 19 34 C16.69 34 14.38 34 12 34 C11.505 31.525 11.505 31.525 11 29 C10.67 30.65 10.34 32.3 10 34 C8.68 34 7.36 34 6 34 C5.34 32.02 4.68 30.04 4 28 C2.02 27.67 0.04 27.34 -2 27 C-1.67 28.32 -1.34 29.64 -1 31 C0.65 30.67 2.3 30.34 4 30 C4.33 30.66 4.66 31.32 5 32 C4.67 32.66 4.34 33.32 4 34 C-2.0546875 34.1953125 -2.0546875 34.1953125 -4 34 C-4.66 33.34 -5.32 32.68 -6 32 C-5.625 28.375 -5.625 28.375 -5 25 C-6.98 24.34 -8.96 23.68 -11 23 C-11 15.74 -11 8.48 -11 1 C-7.54762074 -0.72618963 -3.78182796 -0.359241 0 0 Z M-4 6 C-3.67 6.99 -3.34 7.98 -3 9 C-2.34 8.67 -1.68 8.34 -1 8 C-1 7.34 -1 6.68 -1 6 C-1.99 6 -2.98 6 -4 6 Z M-5 14 C-5 15.32 -5 16.64 -5 18 C-3.68 17.67 -2.36 17.34 -1 17 C-1.33 16.01 -1.66 15.02 -2 14 C-2.99 14 -3.98 14 -5 14 Z M15 30 C16 32 16 32 16 32 Z " fill="#007AC6" transform="translate(46,8)"/>
<path d="M0 0 C3.53536291 2.02020738 5.76937948 4.08438925 7 8 C7.4650834 12.18575059 7.26947631 14.46104738 5.375 18.25 C2.0011258 22.15659118 -0.94167859 23.74796064 -6.0625 24.375 C-9.44776174 23.94283893 -11.28158401 23.03881199 -14 21 C-17.26639972 16.10040042 -16.658496 10.71889465 -16 5 C-12.52887982 -1.34377137 -6.53532868 -1.07120425 0 0 Z M-11 4 C-12.29633621 5.06645115 -12.29633621 5.06645115 -12.0625 7.5625 C-12.041875 8.366875 -12.02125 9.17125 -12 10 C-11.01 10 -10.02 10 -9 10 C-8.525625 9.484375 -8.05125 8.96875 -7.5625 8.4375 C-7.046875 7.963125 -6.53125 7.48875 -6 7 C-3.875 7.1875 -3.875 7.1875 -2 8 C-1.67 8.66 -1.34 9.32 -1 10 C-0.34 10 0.32 10 1 10 C0.65213292 8.02463255 0.65213292 8.02463255 0 6 C-2.1490712 4.7391254 -2.1490712 4.7391254 -5.5 5 C-9 5 -9 5 -11 4 Z M-12 13 C-12 14.65 -12 16.3 -12 18 C-11.01 18.495 -11.01 18.495 -10 19 C-10 18.34 -10 17.68 -10 17 C-9.34 17.33 -8.68 17.66 -8 18 C-3.78264647 18.4270068 -3.78264647 18.4270068 -0.125 16.625 C1.18973666 15.05533986 1.18973666 15.05533986 1 13 C0.34 13 -0.32 13 -1 13 C-1.45375 13.515625 -1.9075 14.03125 -2.375 14.5625 C-2.91125 15.036875 -3.4475 15.51125 -4 16 C-6.125 15.8125 -6.125 15.8125 -8 15 C-8.33 14.34 -8.66 13.68 -9 13 C-9.99 13 -10.98 13 -12 13 Z " fill="#007AC6" transform="translate(27,8)"/>
<path d="M0 0 C1.99954746 -0.04254356 4.00041636 -0.04080783 6 0 C7 1 7 1 7.09765625 3.28515625 C7.08605469 4.20167969 7.07445313 5.11820313 7.0625 6.0625 C7.05347656 6.98160156 7.04445313 7.90070312 7.03515625 8.84765625 C7.02355469 9.55792969 7.01195313 10.26820312 7 11 C7.66 11 8.32 11 9 11 C9 7.37 9 3.74 9 0 C11.31 0 13.62 0 16 0 C16 5.61 16 11.22 16 17 C13.73125 17.061875 11.4625 17.12375 9.125 17.1875 C7.21074219 17.23970703 7.21074219 17.23970703 5.2578125 17.29296875 C4.18273437 17.19628906 3.10765625 17.09960938 2 17 C-0.2422323 13.63665155 -0.39324354 11.90755033 -0.6875 7.9375 C-0.77386719 6.87402344 -0.86023437 5.81054688 -0.94921875 4.71484375 C-1 2 -1 2 0 0 Z " fill="#007AC6" transform="translate(62,14)"/>
<path d="M0 0 C2.31 0 4.62 0 7 0 C7 7.59 7 15.18 7 23 C4.69 23 2.38 23 0 23 C0 15.41 0 7.82 0 0 Z " fill="#007AC6" transform="translate(53,8)"/>
</svg>
